<mxfile host="Electron" agent="Mozilla/5.0 (X11; Linux x86_64) AppleWebKit/537.36 (KHTML, like Gecko) draw.io/24.7.8 Chrome/128.0.6613.36 Electron/32.0.1 Safari/537.36" version="24.7.8">
  <diagram id="C5RBs43oDa-KdzZeNtuy" name="Page-1">
    <mxGraphModel dx="585" dy="684" grid="1" gridSize="10" guides="1" tooltips="1" connect="1" arrows="1" fold="1" page="1" pageScale="1" pageWidth="827" pageHeight="1169" math="0" shadow="0">
      <root>
        <mxCell id="WIyWlLk6GJQsqaUBKTNV-0" />
        <mxCell id="WIyWlLk6GJQsqaUBKTNV-1" parent="WIyWlLk6GJQsqaUBKTNV-0" />
        <mxCell id="zm43EUiuPUIMGW3jL98Q-17" value="" style="edgeStyle=orthogonalEdgeStyle;rounded=0;orthogonalLoop=1;jettySize=auto;html=1;" edge="1" parent="WIyWlLk6GJQsqaUBKTNV-1" source="zm43EUiuPUIMGW3jL98Q-0" target="zm43EUiuPUIMGW3jL98Q-2">
          <mxGeometry relative="1" as="geometry" />
        </mxCell>
        <mxCell id="zm43EUiuPUIMGW3jL98Q-0" value="Start" style="ellipse;whiteSpace=wrap;html=1;fontSize=16;" vertex="1" parent="WIyWlLk6GJQsqaUBKTNV-1">
          <mxGeometry x="120" y="70" width="100" height="60" as="geometry" />
        </mxCell>
        <mxCell id="zm43EUiuPUIMGW3jL98Q-1" value="End" style="ellipse;whiteSpace=wrap;html=1;fontSize=16;" vertex="1" parent="WIyWlLk6GJQsqaUBKTNV-1">
          <mxGeometry x="120" y="1280" width="100" height="60" as="geometry" />
        </mxCell>
        <mxCell id="zm43EUiuPUIMGW3jL98Q-18" value="" style="edgeStyle=orthogonalEdgeStyle;rounded=0;orthogonalLoop=1;jettySize=auto;html=1;" edge="1" parent="WIyWlLk6GJQsqaUBKTNV-1" source="zm43EUiuPUIMGW3jL98Q-2" target="zm43EUiuPUIMGW3jL98Q-4">
          <mxGeometry relative="1" as="geometry" />
        </mxCell>
        <mxCell id="zm43EUiuPUIMGW3jL98Q-2" value="Read input" style="shape=parallelogram;perimeter=parallelogramPerimeter;whiteSpace=wrap;html=1;fixedSize=1;" vertex="1" parent="WIyWlLk6GJQsqaUBKTNV-1">
          <mxGeometry x="110" y="180" width="120" height="40" as="geometry" />
        </mxCell>
        <mxCell id="zm43EUiuPUIMGW3jL98Q-19" value="" style="edgeStyle=orthogonalEdgeStyle;rounded=0;orthogonalLoop=1;jettySize=auto;html=1;" edge="1" parent="WIyWlLk6GJQsqaUBKTNV-1" source="zm43EUiuPUIMGW3jL98Q-4" target="zm43EUiuPUIMGW3jL98Q-5">
          <mxGeometry relative="1" as="geometry" />
        </mxCell>
        <mxCell id="zm43EUiuPUIMGW3jL98Q-4" value="processing = input&lt;div&gt;&amp;nbsp;current_digit = -1&lt;/div&gt;&lt;div&gt;&amp;nbsp;next_digit = -1&lt;/div&gt;&lt;div&gt;&amp;nbsp;result = 0&lt;/div&gt;&lt;div&gt;&amp;nbsp;i = 0&lt;/div&gt;" style="rounded=0;whiteSpace=wrap;html=1;" vertex="1" parent="WIyWlLk6GJQsqaUBKTNV-1">
          <mxGeometry x="90" y="250" width="160" height="90" as="geometry" />
        </mxCell>
        <mxCell id="zm43EUiuPUIMGW3jL98Q-20" value="" style="edgeStyle=orthogonalEdgeStyle;rounded=0;orthogonalLoop=1;jettySize=auto;html=1;" edge="1" parent="WIyWlLk6GJQsqaUBKTNV-1" source="zm43EUiuPUIMGW3jL98Q-5" target="zm43EUiuPUIMGW3jL98Q-6">
          <mxGeometry relative="1" as="geometry" />
        </mxCell>
        <mxCell id="zm43EUiuPUIMGW3jL98Q-36" value="Yes" style="edgeLabel;html=1;align=center;verticalAlign=middle;resizable=0;points=[];" vertex="1" connectable="0" parent="zm43EUiuPUIMGW3jL98Q-20">
          <mxGeometry x="-0.232" y="-1" relative="1" as="geometry">
            <mxPoint as="offset" />
          </mxGeometry>
        </mxCell>
        <mxCell id="zm43EUiuPUIMGW3jL98Q-28" style="edgeStyle=orthogonalEdgeStyle;rounded=0;orthogonalLoop=1;jettySize=auto;html=1;entryX=0;entryY=0.5;entryDx=0;entryDy=0;" edge="1" parent="WIyWlLk6GJQsqaUBKTNV-1" source="zm43EUiuPUIMGW3jL98Q-5" target="zm43EUiuPUIMGW3jL98Q-16">
          <mxGeometry relative="1" as="geometry">
            <mxPoint x="20" y="1240" as="targetPoint" />
            <Array as="points">
              <mxPoint x="20" y="430" />
              <mxPoint x="20" y="1210" />
            </Array>
          </mxGeometry>
        </mxCell>
        <mxCell id="zm43EUiuPUIMGW3jL98Q-37" value="No" style="edgeLabel;html=1;align=center;verticalAlign=middle;resizable=0;points=[];" vertex="1" connectable="0" parent="zm43EUiuPUIMGW3jL98Q-28">
          <mxGeometry x="-0.9598" relative="1" as="geometry">
            <mxPoint as="offset" />
          </mxGeometry>
        </mxCell>
        <mxCell id="zm43EUiuPUIMGW3jL98Q-5" value="&lt;div&gt;If processing &amp;gt; 0&lt;/div&gt;" style="rhombus;whiteSpace=wrap;html=1;" vertex="1" parent="WIyWlLk6GJQsqaUBKTNV-1">
          <mxGeometry x="76" y="400" width="188" height="60" as="geometry" />
        </mxCell>
        <mxCell id="zm43EUiuPUIMGW3jL98Q-21" value="" style="edgeStyle=orthogonalEdgeStyle;rounded=0;orthogonalLoop=1;jettySize=auto;html=1;" edge="1" parent="WIyWlLk6GJQsqaUBKTNV-1" source="zm43EUiuPUIMGW3jL98Q-6" target="zm43EUiuPUIMGW3jL98Q-7">
          <mxGeometry relative="1" as="geometry" />
        </mxCell>
        <mxCell id="zm43EUiuPUIMGW3jL98Q-6" value="current_digit = processing % 10" style="rounded=0;whiteSpace=wrap;html=1;" vertex="1" parent="WIyWlLk6GJQsqaUBKTNV-1">
          <mxGeometry x="70" y="510" width="200" height="40" as="geometry" />
        </mxCell>
        <mxCell id="zm43EUiuPUIMGW3jL98Q-22" style="edgeStyle=orthogonalEdgeStyle;rounded=0;orthogonalLoop=1;jettySize=auto;html=1;entryX=0.5;entryY=0;entryDx=0;entryDy=0;" edge="1" parent="WIyWlLk6GJQsqaUBKTNV-1" source="zm43EUiuPUIMGW3jL98Q-7" target="zm43EUiuPUIMGW3jL98Q-11">
          <mxGeometry relative="1" as="geometry" />
        </mxCell>
        <mxCell id="zm43EUiuPUIMGW3jL98Q-39" value="No" style="edgeLabel;html=1;align=center;verticalAlign=middle;resizable=0;points=[];" vertex="1" connectable="0" parent="zm43EUiuPUIMGW3jL98Q-22">
          <mxGeometry x="-0.84" relative="1" as="geometry">
            <mxPoint as="offset" />
          </mxGeometry>
        </mxCell>
        <mxCell id="zm43EUiuPUIMGW3jL98Q-23" style="edgeStyle=orthogonalEdgeStyle;rounded=0;orthogonalLoop=1;jettySize=auto;html=1;" edge="1" parent="WIyWlLk6GJQsqaUBKTNV-1" source="zm43EUiuPUIMGW3jL98Q-7" target="zm43EUiuPUIMGW3jL98Q-8">
          <mxGeometry relative="1" as="geometry" />
        </mxCell>
        <mxCell id="zm43EUiuPUIMGW3jL98Q-38" value="Yes" style="edgeLabel;html=1;align=center;verticalAlign=middle;resizable=0;points=[];" vertex="1" connectable="0" parent="zm43EUiuPUIMGW3jL98Q-23">
          <mxGeometry x="-0.7441" relative="1" as="geometry">
            <mxPoint as="offset" />
          </mxGeometry>
        </mxCell>
        <mxCell id="zm43EUiuPUIMGW3jL98Q-7" value="&lt;div&gt;If current_digit == 0&lt;/div&gt;" style="rhombus;whiteSpace=wrap;html=1;" vertex="1" parent="WIyWlLk6GJQsqaUBKTNV-1">
          <mxGeometry x="76" y="600" width="188" height="60" as="geometry" />
        </mxCell>
        <mxCell id="zm43EUiuPUIMGW3jL98Q-24" value="" style="edgeStyle=orthogonalEdgeStyle;rounded=0;orthogonalLoop=1;jettySize=auto;html=1;" edge="1" parent="WIyWlLk6GJQsqaUBKTNV-1" source="zm43EUiuPUIMGW3jL98Q-8" target="zm43EUiuPUIMGW3jL98Q-9">
          <mxGeometry relative="1" as="geometry" />
        </mxCell>
        <mxCell id="zm43EUiuPUIMGW3jL98Q-8" value="next_digit = (processing / 10) % 10" style="rounded=0;whiteSpace=wrap;html=1;" vertex="1" parent="WIyWlLk6GJQsqaUBKTNV-1">
          <mxGeometry x="270" y="700" width="220" height="40" as="geometry" />
        </mxCell>
        <mxCell id="zm43EUiuPUIMGW3jL98Q-25" value="" style="edgeStyle=orthogonalEdgeStyle;rounded=0;orthogonalLoop=1;jettySize=auto;html=1;" edge="1" parent="WIyWlLk6GJQsqaUBKTNV-1" source="zm43EUiuPUIMGW3jL98Q-9" target="zm43EUiuPUIMGW3jL98Q-10">
          <mxGeometry relative="1" as="geometry" />
        </mxCell>
        <mxCell id="zm43EUiuPUIMGW3jL98Q-41" value="Yes" style="edgeLabel;html=1;align=center;verticalAlign=middle;resizable=0;points=[];" vertex="1" connectable="0" parent="zm43EUiuPUIMGW3jL98Q-25">
          <mxGeometry x="-0.36" relative="1" as="geometry">
            <mxPoint as="offset" />
          </mxGeometry>
        </mxCell>
        <mxCell id="zm43EUiuPUIMGW3jL98Q-26" style="edgeStyle=orthogonalEdgeStyle;rounded=0;orthogonalLoop=1;jettySize=auto;html=1;" edge="1" parent="WIyWlLk6GJQsqaUBKTNV-1" source="zm43EUiuPUIMGW3jL98Q-9">
          <mxGeometry relative="1" as="geometry">
            <mxPoint x="170" y="810" as="targetPoint" />
          </mxGeometry>
        </mxCell>
        <mxCell id="zm43EUiuPUIMGW3jL98Q-40" value="No" style="edgeLabel;html=1;align=center;verticalAlign=middle;resizable=0;points=[];" vertex="1" connectable="0" parent="zm43EUiuPUIMGW3jL98Q-26">
          <mxGeometry x="-0.6051" y="2" relative="1" as="geometry">
            <mxPoint as="offset" />
          </mxGeometry>
        </mxCell>
        <mxCell id="zm43EUiuPUIMGW3jL98Q-9" value="&lt;div&gt;If next_digit == 9&lt;/div&gt;" style="rhombus;whiteSpace=wrap;html=1;" vertex="1" parent="WIyWlLk6GJQsqaUBKTNV-1">
          <mxGeometry x="286" y="780" width="188" height="60" as="geometry" />
        </mxCell>
        <mxCell id="zm43EUiuPUIMGW3jL98Q-34" style="edgeStyle=orthogonalEdgeStyle;rounded=0;orthogonalLoop=1;jettySize=auto;html=1;" edge="1" parent="WIyWlLk6GJQsqaUBKTNV-1" source="zm43EUiuPUIMGW3jL98Q-10">
          <mxGeometry relative="1" as="geometry">
            <mxPoint x="520" y="910" as="targetPoint" />
          </mxGeometry>
        </mxCell>
        <mxCell id="zm43EUiuPUIMGW3jL98Q-10" value="processing = processing / 10" style="rounded=0;whiteSpace=wrap;html=1;" vertex="1" parent="WIyWlLk6GJQsqaUBKTNV-1">
          <mxGeometry x="290" y="890" width="180" height="40" as="geometry" />
        </mxCell>
        <mxCell id="zm43EUiuPUIMGW3jL98Q-30" style="edgeStyle=orthogonalEdgeStyle;rounded=0;orthogonalLoop=1;jettySize=auto;html=1;entryX=0.5;entryY=0;entryDx=0;entryDy=0;" edge="1" parent="WIyWlLk6GJQsqaUBKTNV-1" source="zm43EUiuPUIMGW3jL98Q-11" target="zm43EUiuPUIMGW3jL98Q-14">
          <mxGeometry relative="1" as="geometry" />
        </mxCell>
        <mxCell id="zm43EUiuPUIMGW3jL98Q-11" value="result = result + ((10^i) * current_digit)" style="rounded=0;whiteSpace=wrap;html=1;" vertex="1" parent="WIyWlLk6GJQsqaUBKTNV-1">
          <mxGeometry x="50" y="980" width="240" height="40" as="geometry" />
        </mxCell>
        <mxCell id="zm43EUiuPUIMGW3jL98Q-31" style="edgeStyle=orthogonalEdgeStyle;rounded=0;orthogonalLoop=1;jettySize=auto;html=1;entryX=0.5;entryY=0;entryDx=0;entryDy=0;" edge="1" parent="WIyWlLk6GJQsqaUBKTNV-1" source="zm43EUiuPUIMGW3jL98Q-14" target="zm43EUiuPUIMGW3jL98Q-15">
          <mxGeometry relative="1" as="geometry" />
        </mxCell>
        <mxCell id="zm43EUiuPUIMGW3jL98Q-14" value="processing = processing / 10" style="rounded=0;whiteSpace=wrap;html=1;" vertex="1" parent="WIyWlLk6GJQsqaUBKTNV-1">
          <mxGeometry x="80" y="1040" width="180" height="40" as="geometry" />
        </mxCell>
        <mxCell id="zm43EUiuPUIMGW3jL98Q-33" style="edgeStyle=orthogonalEdgeStyle;rounded=0;orthogonalLoop=1;jettySize=auto;html=1;entryX=1;entryY=0.5;entryDx=0;entryDy=0;" edge="1" parent="WIyWlLk6GJQsqaUBKTNV-1" source="zm43EUiuPUIMGW3jL98Q-15" target="zm43EUiuPUIMGW3jL98Q-5">
          <mxGeometry relative="1" as="geometry">
            <mxPoint x="520" y="420" as="targetPoint" />
            <Array as="points">
              <mxPoint x="520" y="1120" />
              <mxPoint x="520" y="430" />
            </Array>
          </mxGeometry>
        </mxCell>
        <mxCell id="zm43EUiuPUIMGW3jL98Q-15" value="i = i + 1" style="rounded=0;whiteSpace=wrap;html=1;" vertex="1" parent="WIyWlLk6GJQsqaUBKTNV-1">
          <mxGeometry x="130" y="1100" width="80" height="40" as="geometry" />
        </mxCell>
        <mxCell id="zm43EUiuPUIMGW3jL98Q-35" value="" style="edgeStyle=orthogonalEdgeStyle;rounded=0;orthogonalLoop=1;jettySize=auto;html=1;" edge="1" parent="WIyWlLk6GJQsqaUBKTNV-1" source="zm43EUiuPUIMGW3jL98Q-16" target="zm43EUiuPUIMGW3jL98Q-1">
          <mxGeometry relative="1" as="geometry" />
        </mxCell>
        <mxCell id="zm43EUiuPUIMGW3jL98Q-16" value="Print result" style="shape=parallelogram;perimeter=parallelogramPerimeter;whiteSpace=wrap;html=1;fixedSize=1;" vertex="1" parent="WIyWlLk6GJQsqaUBKTNV-1">
          <mxGeometry x="100" y="1190" width="140" height="40" as="geometry" />
        </mxCell>
      </root>
    </mxGraphModel>
  </diagram>
</mxfile>
